<svg xmlns="http://www.w3.org/2000/svg" width="182" height="65" fill="none" viewBox="0 0 182 65"><circle cx="1.5" cy="1.5" r="1.5" fill="#1524C6"/><circle cx="10.5" cy="1.5" r="1.5" fill="#1524C6"/><circle cx="19.5" cy="1.5" r="1.5" fill="#1524C6"/><circle cx="28.5" cy="1.5" r="1.5" fill="#1524C6"/><circle cx="37.5" cy="1.5" r="1.5" fill="#1524C6"/><circle cx="46.5" cy="1.5" r="1.5" fill="#1524C6"/><circle cx="55.5" cy="1.5" r="1.5" fill="#1524C6"/><circle cx="64.5" cy="1.5" r="1.5" fill="#1524C6"/><circle cx="73.5" cy="1.5" r="1.5" fill="#1524C6"/><circle cx="82.5" cy="1.5" r="1.5" fill="#1524C6"/><circle cx="91.5" cy="1.5" r="1.5" fill="#1524C6"/><circle cx="100.5" cy="1.5" r="1.5" fill="#1524C6"/><circle cx="109.5" cy="1.5" r="1.5" fill="#1524C6"/><circle cx="118.5" cy="1.5" r="1.5" fill="#1524C6"/><circle cx="127.5" cy="1.5" r="1.5" fill="#1524C6"/><circle cx="136.5" cy="1.5" r="1.5" fill="#1524C6"/><circle cx="145.5" cy="1.5" r="1.5" fill="#1524C6"/><circle cx="154.5" cy="1.5" r="1.5" fill="#1524C6"/><circle cx="163.5" cy="1.5" r="1.5" fill="#1524C6"/><circle cx="172.5" cy="1.5" r="1.5" fill="#1524C6"/><circle cx="1.5" cy="10.5" r="1.5" fill="#1524C6"/><circle cx="10.5" cy="10.5" r="1.5" fill="#1524C6"/><circle cx="19.5" cy="10.5" r="1.5" fill="#1524C6"/><circle cx="28.5" cy="10.5" r="1.5" fill="#1524C6"/><circle cx="37.5" cy="10.5" r="1.5" fill="#1524C6"/><circle cx="46.5" cy="10.5" r="1.5" fill="#1524C6"/><circle cx="55.5" cy="10.5" r="1.5" fill="#1524C6"/><circle cx="64.5" cy="10.5" r="1.5" fill="#1524C6"/><circle cx="73.5" cy="10.5" r="1.5" fill="#1524C6"/><circle cx="82.5" cy="10.5" r="1.5" fill="#1524C6"/><circle cx="91.5" cy="10.5" r="1.5" fill="#1524C6"/><circle cx="100.5" cy="10.5" r="1.5" fill="#1524C6"/><circle cx="109.5" cy="10.5" r="1.5" fill="#1524C6"/><circle cx="118.5" cy="10.5" r="1.5" fill="#1524C6"/><circle cx="127.5" cy="10.5" r="1.5" fill="#1524C6"/><circle cx="136.5" cy="10.5" r="1.5" fill="#1524C6"/><circle cx="145.5" cy="10.5" r="1.5" fill="#1524C6"/><circle cx="154.5" cy="10.5" r="1.5" fill="#1524C6"/><circle cx="163.5" cy="10.5" r="1.5" fill="#1524C6"/><circle cx="172.5" cy="10.5" r="1.5" fill="#1524C6"/><circle cx="1.5" cy="19.5" r="1.5" fill="#1524C6"/><circle cx="10.5" cy="19.5" r="1.5" fill="#1524C6"/><circle cx="19.5" cy="19.5" r="1.5" fill="#1524C6"/><circle cx="28.5" cy="19.5" r="1.5" fill="#1524C6"/><circle cx="37.5" cy="19.5" r="1.5" fill="#1524C6"/><circle cx="46.5" cy="19.5" r="1.5" fill="#1524C6"/><circle cx="55.5" cy="19.5" r="1.5" fill="#1524C6"/><circle cx="64.5" cy="19.5" r="1.5" fill="#1524C6"/><circle cx="73.5" cy="19.5" r="1.5" fill="#1524C6"/><circle cx="82.5" cy="19.5" r="1.5" fill="#1524C6"/><circle cx="91.5" cy="19.5" r="1.5" fill="#1524C6"/><circle cx="100.5" cy="19.5" r="1.5" fill="#1524C6"/><circle cx="109.5" cy="19.5" r="1.5" fill="#1524C6"/><circle cx="118.5" cy="19.5" r="1.5" fill="#1524C6"/><circle cx="127.5" cy="19.5" r="1.5" fill="#1524C6"/><circle cx="136.5" cy="19.5" r="1.5" fill="#1524C6"/><circle cx="145.5" cy="19.5" r="1.5" fill="#1524C6"/><circle cx="154.5" cy="19.5" r="1.5" fill="#1524C6"/><circle cx="163.5" cy="19.5" r="1.5" fill="#1524C6"/><circle cx="172.5" cy="19.5" r="1.5" fill="#1524C6"/><circle cx="1.5" cy="28.5" r="1.5" fill="#1524C6"/><circle cx="10.5" cy="28.5" r="1.5" fill="#1524C6"/><circle cx="19.5" cy="28.5" r="1.5" fill="#1524C6"/><circle cx="28.5" cy="28.5" r="1.5" fill="#1524C6"/><circle cx="37.5" cy="28.5" r="1.5" fill="#1524C6"/><circle cx="46.5" cy="28.5" r="1.5" fill="#1524C6"/><circle cx="55.5" cy="28.5" r="1.5" fill="#1524C6"/><circle cx="64.5" cy="28.5" r="1.5" fill="#1524C6"/><circle cx="73.5" cy="28.5" r="1.5" fill="#1524C6"/><circle cx="82.5" cy="28.5" r="1.5" fill="#1524C6"/><circle cx="91.5" cy="28.5" r="1.5" fill="#1524C6"/><circle cx="100.5" cy="28.5" r="1.5" fill="#1524C6"/><circle cx="109.5" cy="28.5" r="1.5" fill="#1524C6"/><circle cx="118.5" cy="28.5" r="1.5" fill="#1524C6"/><circle cx="127.5" cy="28.5" r="1.5" fill="#1524C6"/><circle cx="136.5" cy="28.5" r="1.5" fill="#1524C6"/><circle cx="145.5" cy="28.5" r="1.5" fill="#1524C6"/><circle cx="154.5" cy="28.5" r="1.5" fill="#1524C6"/><circle cx="163.5" cy="28.5" r="1.5" fill="#1524C6"/><circle cx="172.5" cy="28.5" r="1.5" fill="#1524C6"/><circle cx="1.5" cy="37.5" r="1.5" fill="#1524C6"/><circle cx="10.5" cy="37.5" r="1.5" fill="#1524C6"/><circle cx="19.5" cy="37.5" r="1.5" fill="#1524C6"/><circle cx="28.5" cy="37.5" r="1.5" fill="#1524C6"/><circle cx="37.5" cy="37.5" r="1.5" fill="#1524C6"/><circle cx="46.5" cy="37.5" r="1.5" fill="#1524C6"/><circle cx="55.5" cy="37.5" r="1.5" fill="#1524C6"/><circle cx="64.5" cy="37.5" r="1.5" fill="#1524C6"/><circle cx="73.5" cy="37.5" r="1.5" fill="#1524C6"/><circle cx="82.5" cy="37.5" r="1.5" fill="#1524C6"/><circle cx="91.5" cy="37.5" r="1.5" fill="#1524C6"/><circle cx="100.5" cy="37.5" r="1.5" fill="#1524C6"/><circle cx="109.5" cy="37.5" r="1.5" fill="#1524C6"/><circle cx="118.5" cy="37.5" r="1.5" fill="#1524C6"/><circle cx="127.5" cy="37.5" r="1.5" fill="#1524C6"/><circle cx="136.5" cy="37.5" r="1.5" fill="#1524C6"/><circle cx="145.5" cy="37.5" r="1.5" fill="#1524C6"/><circle cx="154.5" cy="37.5" r="1.5" fill="#1524C6"/><circle cx="163.5" cy="37.5" r="1.5" fill="#1524C6"/><circle cx="172.5" cy="37.5" r="1.5" fill="#1524C6"/><circle cx="1.5" cy="46.5" r="1.5" fill="#1524C6"/><circle cx="10.5" cy="46.5" r="1.5" fill="#1524C6"/><circle cx="19.5" cy="46.5" r="1.5" fill="#1524C6"/><circle cx="28.5" cy="46.5" r="1.5" fill="#1524C6"/><circle cx="37.5" cy="46.5" r="1.5" fill="#1524C6"/><circle cx="46.5" cy="46.5" r="1.5" fill="#1524C6"/><circle cx="55.5" cy="46.5" r="1.5" fill="#1524C6"/><circle cx="64.5" cy="46.5" r="1.5" fill="#1524C6"/><circle cx="73.5" cy="46.5" r="1.5" fill="#1524C6"/><circle cx="82.5" cy="46.5" r="1.5" fill="#1524C6"/><circle cx="91.5" cy="46.5" r="1.5" fill="#1524C6"/><circle cx="100.5" cy="46.5" r="1.5" fill="#1524C6"/><circle cx="109.5" cy="46.5" r="1.5" fill="#1524C6"/><circle cx="118.5" cy="46.5" r="1.5" fill="#1524C6"/><circle cx="127.5" cy="46.5" r="1.5" fill="#1524C6"/><circle cx="136.5" cy="46.5" r="1.5" fill="#1524C6"/><circle cx="145.5" cy="46.5" r="1.5" fill="#1524C6"/><circle cx="154.5" cy="46.5" r="1.5" fill="#1524C6"/><circle cx="163.5" cy="46.5" r="1.5" fill="#1524C6"/><circle cx="172.5" cy="46.5" r="1.5" fill="#1524C6"/><circle cx="1.5" cy="55.5" r="1.5" fill="#1524C6"/><circle cx="10.5" cy="55.5" r="1.5" fill="#1524C6"/><circle cx="19.5" cy="55.5" r="1.5" fill="#1524C6"/><circle cx="28.5" cy="55.5" r="1.5" fill="#1524C6"/><circle cx="37.5" cy="55.5" r="1.5" fill="#1524C6"/><circle cx="46.5" cy="55.5" r="1.5" fill="#1524C6"/><circle cx="55.5" cy="55.5" r="1.5" fill="#1524C6"/><circle cx="64.5" cy="55.5" r="1.5" fill="#1524C6"/><circle cx="73.5" cy="55.5" r="1.5" fill="#1524C6"/><circle cx="82.5" cy="55.5" r="1.5" fill="#1524C6"/><circle cx="91.5" cy="55.5" r="1.5" fill="#1524C6"/><circle cx="100.5" cy="55.5" r="1.5" fill="#1524C6"/><circle cx="109.5" cy="55.5" r="1.5" fill="#1524C6"/><circle cx="118.5" cy="55.5" r="1.5" fill="#1524C6"/><circle cx="127.5" cy="55.5" r="1.5" fill="#1524C6"/><circle cx="136.5" cy="55.5" r="1.5" fill="#1524C6"/><circle cx="145.5" cy="55.5" r="1.5" fill="#1524C6"/><circle cx="154.5" cy="55.5" r="1.5" fill="#1524C6"/><circle cx="163.5" cy="55.5" r="1.5" fill="#1524C6"/><circle cx="172.5" cy="55.5" r="1.5" fill="#1524C6"/></svg>