<svg xmlns="http://www.w3.org/2000/svg" width="50" height="50" fill="none" viewBox="0 0 50 50"><g clip-path="url(#clip0)"><circle cx="1.5" cy="1.5" r="1.5" fill="#1524C6"/><circle cx="10.5" cy="1.5" r="1.5" fill="#1524C6"/><circle cx="19.5" cy="1.5" r="1.5" fill="#1524C6"/><circle cx="28.5" cy="1.5" r="1.5" fill="#1524C6"/><circle cx="37.5" cy="1.5" r="1.5" fill="#1524C6"/><circle cx="46.5" cy="1.5" r="1.5" fill="#1524C6"/><circle cx="1.5" cy="10.5" r="1.5" fill="#1524C6"/><circle cx="10.5" cy="10.5" r="1.5" fill="#1524C6"/><circle cx="19.5" cy="10.5" r="1.5" fill="#1524C6"/><circle cx="28.5" cy="10.5" r="1.5" fill="#1524C6"/><circle cx="37.5" cy="10.5" r="1.5" fill="#1524C6"/><circle cx="46.5" cy="10.5" r="1.5" fill="#1524C6"/><circle cx="1.5" cy="19.5" r="1.5" fill="#1524C6"/><circle cx="10.5" cy="19.5" r="1.5" fill="#1524C6"/><circle cx="19.5" cy="19.5" r="1.5" fill="#1524C6"/><circle cx="28.5" cy="19.5" r="1.5" fill="#1524C6"/><circle cx="37.5" cy="19.5" r="1.5" fill="#1524C6"/><circle cx="46.5" cy="19.5" r="1.5" fill="#1524C6"/><circle cx="1.5" cy="28.5" r="1.5" fill="#1524C6"/><circle cx="10.5" cy="28.5" r="1.5" fill="#1524C6"/><circle cx="19.5" cy="28.5" r="1.5" fill="#1524C6"/><circle cx="28.5" cy="28.5" r="1.5" fill="#1524C6"/><circle cx="37.5" cy="28.5" r="1.5" fill="#1524C6"/><circle cx="46.5" cy="28.5" r="1.5" fill="#1524C6"/><circle cx="1.5" cy="37.5" r="1.5" fill="#1524C6"/><circle cx="10.5" cy="37.5" r="1.5" fill="#1524C6"/><circle cx="19.5" cy="37.5" r="1.5" fill="#1524C6"/><circle cx="28.5" cy="37.5" r="1.5" fill="#1524C6"/><circle cx="37.5" cy="37.5" r="1.5" fill="#1524C6"/><circle cx="46.5" cy="37.5" r="1.5" fill="#1524C6"/><circle cx="1.5" cy="46.5" r="1.5" fill="#1524C6"/><circle cx="10.5" cy="46.5" r="1.5" fill="#1524C6"/><circle cx="19.5" cy="46.5" r="1.5" fill="#1524C6"/><circle cx="28.5" cy="46.5" r="1.5" fill="#1524C6"/><circle cx="37.5" cy="46.5" r="1.5" fill="#1524C6"/><circle cx="46.5" cy="46.5" r="1.5" fill="#1524C6"/></g><defs><clipPath id="clip0"><rect width="50" height="50" fill="#fff" rx="25"/></clipPath></defs></svg>