<svg width="469" height="721" viewBox="0 0 469 721" fill="none" xmlns="http://www.w3.org/2000/svg">
<path fill-rule="evenodd" clip-rule="evenodd" d="M457.278 157.942C512.952 191.434 616.529 135.251 645.721 197.642C674.223 258.56 597.552 336.234 574.584 408.659C554.382 472.364 559.161 541.882 519.412 595.933C476.457 654.342 414.776 693.809 351.738 711.683C286.451 730.195 223.163 719.004 164.758 696.492C100.173 671.597 11.9578 653.294 1.39179 576.64C-9.55866 497.198 97.4574 434.631 117.253 351.853C137.051 269.062 69.0728 186.772 112.492 112.052C155.637 37.8043 248.594 -7.55499 320.538 2.02038C390.873 11.3816 397.692 122.096 457.278 157.942Z" fill="#6FFFE9" fill-opacity="0.3"/>
</svg>
