<svg width="480" height="834" viewBox="0 0 480 834" fill="none" xmlns="http://www.w3.org/2000/svg">
<path fill-rule="evenodd" clip-rule="evenodd" d="M486.073 832.484C391.314 832.544 309.388 777.697 230.076 725.843C146.827 671.414 51.111 620.244 18.0002 526.454C-15.3544 431.972 8.27603 323.34 57.091 235.839C101.023 157.092 189.254 120.986 268.355 77.6949C336.596 40.3477 405.536 -0.207074 483.278 2.59475C559.285 5.33405 621.383 53.94 686.778 92.7749C759.656 136.054 848.484 165.085 885.388 241.39C924.101 321.434 909.695 416.333 884.505 501.605C858.83 588.515 812.086 667.622 742.368 725.519C669.364 786.146 580.969 832.424 486.073 832.484Z" stroke="#0B132B" stroke-width="3"/>
</svg>
