<svg width="129" height="409" viewBox="0 0 129 409" fill="none" xmlns="http://www.w3.org/2000/svg">
<path fill-rule="evenodd" clip-rule="evenodd" d="M-50.8862 3.94101C-19.7029 9.7332 -10.5969 54.9618 18.6628 67.2186C50.289 80.4667 101.409 46.543 119.878 75.4735C139.526 106.251 96.7621 143.618 90.3993 179.591C86.6054 201.04 90.4615 222.341 90.0479 244.12C89.5446 270.618 95.3541 297.233 87.6834 322.597C78.5152 352.914 71.5803 394.209 41.6067 404.3C9.96407 414.953 -17.6313 372.161 -50.8862 369.249C-80.2177 366.681 -111.539 405.313 -135.907 388.757C-162.206 370.89 -138.308 322.431 -157.329 296.932C-175.445 272.646 -223.022 281.554 -236.224 254.273C-248.371 229.172 -228.32 199.365 -216.843 173.95C-206.559 151.177 -186.076 135.623 -173.025 114.32C-158.049 89.8762 -155.331 58.0594 -134.073 38.8484C-111.467 18.4191 -80.8211 -1.61928 -50.8862 3.94101Z" stroke="#757575" stroke-width="6"/>
</svg>
