<svg width="607" height="688" viewBox="0 0 607 688" fill="none" xmlns="http://www.w3.org/2000/svg">
<path fill-rule="evenodd" clip-rule="evenodd" d="M381.442 554.426C318.258 554.466 263.63 517.895 210.746 483.319C155.236 447.026 91.4136 412.906 69.3356 350.368C47.095 287.369 62.8516 214.933 95.401 156.589C124.694 104.081 183.526 80.0053 236.27 51.1395C281.772 26.2367 327.741 -0.804882 379.579 1.06335C430.26 2.88989 471.666 35.2999 515.271 61.1947C563.865 90.0526 623.095 109.411 647.702 160.29C673.515 213.663 663.91 276.94 647.113 333.799C629.993 391.75 598.825 444.498 552.338 483.103C503.659 523.528 444.718 554.386 381.442 554.426Z" fill="#6FFFE9" fill-opacity="0.3"/>
<rect width="514.729" height="430.826" transform="matrix(-1 0 0 1 514.729 256.536)"/>
<circle cx="198.916" cy="229.197" r="16.9691" fill="#1524C6" fill-opacity="0.67"/>
<circle cx="541.596" cy="458.751" r="11.7841" fill="#1C2541"/>
<circle cx="79.19" cy="161.321" r="10.37" fill="#6FFFE9"/>
<circle cx="394.062" cy="18.9691" r="16.9691" fill="#7597FF"/>
<circle cx="365.78" cy="233.911" r="4.71363" fill="#6FFFE9"/>
</svg>
