<svg width="103" height="24" viewBox="0 0 103 24" fill="none" xmlns="http://www.w3.org/2000/svg">
<path d="M24.6602 23H20.8223V10.4902L14.0693 22.3701C13.9033 22.6729 13.6689 22.9023 13.3662 23.0586C13.0732 23.2148 12.7559 23.293 12.4141 23.293C12.082 23.293 11.7695 23.2148 11.4766 23.0586C11.1934 22.9023 10.9688 22.6729 10.8027 22.3701L4.02051 10.4902V23H0.211914V3.62012C0.211914 3.18066 0.338867 2.79004 0.592773 2.44824C0.856445 2.10645 1.19824 1.87695 1.61816 1.75977C1.82324 1.71094 2.02832 1.69629 2.2334 1.71582C2.43848 1.72559 2.63379 1.76953 2.81934 1.84766C3.01465 1.91602 3.19043 2.01855 3.34668 2.15527C3.50293 2.28223 3.63477 2.43848 3.74219 2.62402L12.4141 17.6973L21.0859 2.62402C21.3105 2.25293 21.6182 1.98926 22.0088 1.83301C22.4092 1.67676 22.8242 1.65234 23.2539 1.75977C23.6641 1.87695 24.001 2.10645 24.2646 2.44824C24.5283 2.79004 24.6602 3.18066 24.6602 3.62012V23ZM45.5928 12.4092C45.5928 12.9365 45.5 13.5078 45.3145 14.123C45.1289 14.7285 44.8262 15.2949 44.4062 15.8223C43.9961 16.3398 43.4541 16.7744 42.7803 17.126C42.1162 17.4775 41.3057 17.6533 40.3486 17.6533H33.4785V14.0352H40.3486C40.8662 14.0352 41.2666 13.8789 41.5498 13.5664C41.833 13.2441 41.9746 12.8486 41.9746 12.3799C41.9746 11.8818 41.8135 11.4912 41.4912 11.208C41.1787 10.9248 40.7979 10.7832 40.3486 10.7832H33.4785C32.9609 10.7832 32.5605 10.9443 32.2773 11.2666C31.9941 11.5791 31.8525 11.9697 31.8525 12.4385V17.7559C31.8525 18.2637 32.0088 18.6592 32.3213 18.9424C32.6436 19.2256 33.0391 19.3672 33.5078 19.3672H40.3486V23H33.4785C32.9512 23 32.3799 22.9072 31.7646 22.7217C31.1592 22.5361 30.5928 22.2383 30.0654 21.8281C29.5479 21.4082 29.1133 20.8662 28.7617 20.2021C28.4102 19.5283 28.2344 18.7129 28.2344 17.7559V12.4092C28.2344 11.8818 28.3271 11.3154 28.5127 10.71C28.6982 10.0947 28.9961 9.52832 29.4062 9.01074C29.8262 8.4834 30.3682 8.04395 31.0322 7.69238C31.7061 7.34082 32.5215 7.16504 33.4785 7.16504H40.3486C40.876 7.16504 41.4424 7.25781 42.0479 7.44336C42.6631 7.62891 43.2295 7.93164 43.7471 8.35156C44.2744 8.76172 44.7139 9.30371 45.0654 9.97754C45.417 10.6416 45.5928 11.4521 45.5928 12.4092ZM81.7012 3.91309H77.8926V0.470703H81.7012V3.91309ZM81.7012 23H77.8926V7.16504H81.7012V23ZM102.912 23H99.1035V14.2109C99.1035 13.7129 99.0156 13.2686 98.8398 12.8779C98.6738 12.4775 98.4443 12.1357 98.1514 11.8525C97.8584 11.5693 97.5117 11.3545 97.1113 11.208C96.7207 11.0518 96.2959 10.9736 95.8369 10.9736H89.1719V23H85.3633V9.05469C85.3633 8.79102 85.4121 8.54688 85.5098 8.32227C85.6074 8.08789 85.7441 7.8877 85.9199 7.72168C86.0957 7.5459 86.3008 7.40918 86.5352 7.31152C86.7695 7.21387 87.0186 7.16504 87.2822 7.16504H95.8662C96.3447 7.16504 96.8477 7.21875 97.375 7.32617C97.9121 7.43359 98.4395 7.60937 98.957 7.85352C99.4844 8.08789 99.9824 8.39062 100.451 8.76172C100.93 9.12305 101.35 9.56738 101.711 10.0947C102.082 10.6123 102.375 11.2129 102.59 11.8965C102.805 12.5801 102.912 13.3516 102.912 14.2109V23Z" fill="#0B132B"/>
<path d="M55.1143 23H53.415C52.8682 23 52.2822 22.9072 51.6572 22.7217C51.042 22.5361 50.4658 22.2334 49.9287 21.8135C49.3916 21.3838 48.9473 20.832 48.5957 20.1582C48.2441 19.4746 48.0684 18.6396 48.0684 17.6533V0.470703H51.877V17.6533C51.877 18.1221 52.0234 18.498 52.3164 18.7812C52.6094 19.0547 52.9756 19.1914 53.415 19.1914H55.1143V23ZM76.457 7.16504C76.0273 8.50293 75.5244 9.82129 74.9482 11.1201C74.3721 12.4189 73.708 13.6592 72.9561 14.8408C72.2139 16.0127 71.3789 17.1016 70.4512 18.1074C69.5332 19.1035 68.5127 19.9678 67.3896 20.7002C66.2764 21.4229 65.0605 21.9941 63.7422 22.4141C62.4336 22.8242 61.0127 23.0293 59.4795 23.0293C59.2158 23.0293 58.9668 22.9805 58.7324 22.8828C58.498 22.7852 58.293 22.6533 58.1172 22.4873C57.9414 22.3115 57.8047 22.1113 57.707 21.8867C57.6094 21.6523 57.5605 21.4033 57.5605 21.1396V7.16504H61.3691V19.0742C62.2969 19.0742 63.1855 18.874 64.0352 18.4736C64.8945 18.0732 65.7051 17.5459 66.4668 16.8916C67.2285 16.2275 67.9316 15.4756 68.5762 14.6357C69.2305 13.7959 69.8115 12.9365 70.3193 12.0576C70.8271 11.1689 71.2568 10.2998 71.6084 9.4502C71.9697 8.60059 72.2383 7.83887 72.4141 7.16504H76.457Z" fill="#6FFFE9"/>
</svg>
