<svg width="80" height="38" viewBox="0 0 80 38" fill="none" xmlns="http://www.w3.org/2000/svg">
<path d="M26.6602 30H22.8223V17.4902L16.0693 29.3701C15.9033 29.6729 15.6689 29.9023 15.3662 30.0586C15.0732 30.2148 14.7559 30.293 14.4141 30.293C14.082 30.293 13.7695 30.2148 13.4766 30.0586C13.1934 29.9023 12.9688 29.6729 12.8027 29.3701L6.02051 17.4902V30H2.21191V10.6201C2.21191 10.1807 2.33887 9.79004 2.59277 9.44824C2.85645 9.10645 3.19824 8.87695 3.61816 8.75977C3.82324 8.71094 4.02832 8.69629 4.2334 8.71582C4.43848 8.72559 4.63379 8.76953 4.81934 8.84766C5.01465 8.91602 5.19043 9.01855 5.34668 9.15527C5.50293 9.28223 5.63477 9.43848 5.74219 9.62402L14.4141 24.6973L23.0859 9.62402C23.3105 9.25293 23.6182 8.98926 24.0088 8.83301C24.4092 8.67676 24.8242 8.65234 25.2539 8.75977C25.6641 8.87695 26.001 9.10645 26.2646 9.44824C26.5283 9.79004 26.6602 10.1807 26.6602 10.6201V30Z" fill="#0B132B"/>
<path d="M77.4902 30H73.6816V21.2109C73.6816 20.7129 73.5938 20.2686 73.418 19.8779C73.252 19.4775 73.0225 19.1357 72.7295 18.8525C72.4365 18.5693 72.0898 18.3545 71.6895 18.208C71.2988 18.0518 70.874 17.9736 70.415 17.9736H63.75V30H59.9414V16.0547C59.9414 15.791 59.9902 15.5469 60.0879 15.3223C60.1855 15.0879 60.3223 14.8877 60.498 14.7217C60.6738 14.5459 60.8789 14.4092 61.1133 14.3115C61.3477 14.2139 61.5967 14.165 61.8604 14.165H70.4443C70.9229 14.165 71.4258 14.2188 71.9531 14.3262C72.4902 14.4336 73.0176 14.6094 73.5352 14.8535C74.0625 15.0879 74.5605 15.3906 75.0293 15.7617C75.5078 16.123 75.9277 16.5674 76.2891 17.0947C76.6602 17.6123 76.9531 18.2129 77.168 18.8965C77.3828 19.5801 77.4902 20.3516 77.4902 21.2109V30Z" fill="#0B132B"/>
<path d="M37.7451 30H36.0459C35.499 30 34.9131 29.9072 34.2881 29.7217C33.6729 29.5361 33.0967 29.2334 32.5596 28.8135C32.0225 28.3838 31.5781 27.832 31.2266 27.1582C30.875 26.4746 30.6992 25.6396 30.6992 24.6533V7.4707H34.5078V24.6533C34.5078 25.1221 34.6543 25.498 34.9473 25.7812C35.2402 26.0547 35.6064 26.1914 36.0459 26.1914H37.7451V30Z" fill="#6FFFE9"/>
<path d="M59.0879 14.165C58.6582 15.5029 58.1553 16.8213 57.5791 18.1201C57.0029 19.4189 56.3389 20.6592 55.5869 21.8408C54.8447 23.0127 54.0098 24.1016 53.082 25.1074C52.1641 26.1035 51.1436 26.9678 50.0205 27.7002C48.9072 28.4229 47.6914 28.9941 46.373 29.4141C45.0645 29.8242 43.6436 30.0293 42.1104 30.0293C41.8467 30.0293 41.5977 29.9805 41.3633 29.8828C41.1289 29.7852 40.9238 29.6533 40.748 29.4873C40.5723 29.3115 40.4355 29.1113 40.3379 28.8867C40.2402 28.6523 40.1914 28.4033 40.1914 28.1396V14.165H44V26.0742C44.9277 26.0742 45.8164 25.874 46.666 25.4736C47.5254 25.0732 48.3359 24.5459 49.0977 23.8916C49.8594 23.2275 50.5625 22.4756 51.207 21.6357C51.8613 20.7959 52.4424 19.9365 52.9502 19.0576C53.458 18.1689 53.8877 17.2998 54.2393 16.4502C54.6006 15.6006 54.8691 14.8389 55.0449 14.165H59.0879Z" fill="#6FFFE9"/>
</svg>
