<svg width="126" height="123" viewBox="0 0 126 123" fill="none" xmlns="http://www.w3.org/2000/svg">
<path d="M112.063 48.6506L114.461 51.7495L113.799 48.7399L112.063 48.6506ZM112.01 52.0189L114.408 55.1155L114.461 51.7495L112.01 52.0189ZM111.274 55.6888L113.672 58.7829L114.408 55.1155L111.274 55.6888ZM109.884 59.6051L112.283 62.6966L113.672 58.7829L109.884 59.6051ZM107.871 63.7128L110.272 66.8015L112.283 62.6966L107.871 63.7128ZM105.265 67.9567L107.668 71.0426L110.272 66.8015L105.265 67.9567ZM102.097 72.2818L104.502 75.3647L107.668 71.0426L102.097 72.2818ZM98.3972 76.6329L100.804 79.7128L104.502 75.3647L98.3972 76.6329ZM94.1961 80.9549L96.6062 84.0319L100.804 79.7128L94.1961 80.9549ZM89.5243 85.1927L91.9376 88.2668L96.6062 84.0319L89.5243 85.1927ZM84.4122 89.2912L86.8289 92.3625L91.9376 88.2668L84.4122 89.2912ZM79.0634 93.0755L81.4838 96.1443L86.8289 92.3625L79.0634 93.0755ZM73.7021 96.3983L76.1261 99.4648L81.4838 96.1443L73.7021 96.3983ZM68.3895 99.2453L70.8171 102.31L76.1261 99.4648L68.3895 99.2453ZM63.1872 101.602L65.6183 104.665L70.8171 102.31L63.1872 101.602ZM58.1565 103.456L60.591 106.517L65.6183 104.665L58.1565 103.456ZM53.3587 104.791L55.7965 107.851L60.591 106.517L53.3587 104.791ZM48.8552 105.594L51.2961 108.654L55.7965 107.851L48.8552 105.594ZM44.7074 105.85L47.1511 108.91L51.2961 108.654L44.7074 105.85ZM40.9768 105.547L43.423 108.607L47.1511 108.91L40.9768 105.547ZM37.7245 104.668L40.173 107.729L43.423 108.607L37.7245 104.668ZM35.0121 103.202L37.4624 106.263L40.173 107.729L35.0121 103.202ZM32.9009 101.132L35.3526 104.195L37.4624 106.263L32.9009 101.132ZM111.4 45.6389L113.799 48.7399L112.392 46.1418L111.4 45.6389ZM111.4 45.6389L112.063 48.6506L113.799 48.7399L111.4 45.6389ZM112.063 48.6506L112.01 52.0189L114.461 51.7495L112.063 48.6506ZM112.01 52.0189L111.274 55.6888L114.408 55.1155L112.01 52.0189ZM111.274 55.6888L109.884 59.6051L113.672 58.7829L111.274 55.6888ZM109.884 59.6051L107.871 63.7128L112.283 62.6966L109.884 59.6051ZM107.871 63.7128L105.265 67.9567L110.272 66.8015L107.871 63.7128ZM105.265 67.9567L102.097 72.2818L107.668 71.0426L105.265 67.9567ZM102.097 72.2818L98.3972 76.6329L104.502 75.3647L102.097 72.2818ZM98.3972 76.6329L94.1961 80.9549L100.804 79.7128L98.3972 76.6329ZM94.1961 80.9549L89.5243 85.1927L96.6062 84.0319L94.1961 80.9549ZM89.5243 85.1927L84.4122 89.2912L91.9376 88.2668L89.5243 85.1927ZM84.4122 89.2912L79.0634 93.0755L86.8289 92.3625L84.4122 89.2912ZM79.0634 93.0755L73.7021 96.3983L81.4838 96.1443L79.0634 93.0755ZM73.7021 96.3983L68.3895 99.2453L76.1261 99.4648L73.7021 96.3983ZM68.3895 99.2453L63.1872 101.602L70.8171 102.31L68.3895 99.2453ZM63.1872 101.602L58.1565 103.456L65.6183 104.665L63.1872 101.602ZM58.1565 103.456L53.3587 104.791L60.591 106.517L58.1565 103.456ZM53.3587 104.791L48.8552 105.594L55.7965 107.851L53.3587 104.791ZM48.8552 105.594L44.7074 105.85L51.2961 108.654L48.8552 105.594ZM44.7074 105.85L40.9768 105.547L47.1511 108.91L44.7074 105.85ZM40.9768 105.547L37.7245 104.668L43.423 108.607L40.9768 105.547ZM37.7245 104.668L35.0121 103.202L40.173 107.729L37.7245 104.668ZM35.0121 103.202L32.9009 101.132L37.4624 106.263L35.0121 103.202ZM109.993 43.0391L111.4 45.6389L112.392 46.1418L109.993 43.0391ZM109.661 45.5474L112.063 48.6506L111.4 45.6389L109.661 45.5474ZM109.609 48.9181L112.01 52.0189L112.063 48.6506L109.609 48.9181ZM108.872 52.5904L111.274 55.6888L112.01 52.0189L108.872 52.5904ZM107.481 56.5094L109.884 59.6051L111.274 55.6888L107.481 56.5094ZM105.467 60.6199L107.871 63.7128L109.884 59.6051L105.467 60.6199ZM102.859 64.8667L105.265 67.9567L107.871 63.7128L102.859 64.8667ZM99.689 69.1947L102.097 72.2818L105.265 67.9567L99.689 69.1947ZM95.9867 73.5488L98.3972 76.6329L102.097 72.2818L95.9867 73.5488ZM91.7828 77.8737L94.1961 80.9549L98.3972 76.6329L91.7828 77.8737ZM87.1078 82.1144L89.5243 85.1927L94.1961 80.9549L87.1078 82.1144ZM81.9922 86.2157L84.4122 89.2912L89.5243 85.1927L81.9922 86.2157ZM76.6398 90.0026L79.0634 93.0755L84.4122 89.2912L76.6398 90.0026ZM71.2748 93.3276L73.7021 96.3983L79.0634 93.0755L71.2748 93.3276ZM65.9586 96.1766L68.3895 99.2453L73.7021 96.3983L65.9586 96.1766ZM60.7528 98.5353L63.1872 101.602L68.3895 99.2453L60.7528 98.5353ZM55.7186 100.39L58.1565 103.456L63.1872 101.602L55.7186 100.39ZM50.9175 101.726L53.3587 104.791L58.1565 103.456L50.9175 101.726ZM46.411 102.529L48.8552 105.594L53.3587 104.791L46.411 102.529ZM42.2604 102.786L44.7074 105.85L48.8552 105.594L42.2604 102.786ZM38.5272 102.482L40.9768 105.547L44.7074 105.85L38.5272 102.482ZM35.2728 101.603L37.7245 104.668L40.9768 105.547L35.2728 101.603ZM32.5585 100.136L35.0121 103.202L37.7245 104.668L32.5585 100.136ZM30.4459 98.0646L32.9009 101.132L35.0121 103.202L30.4459 98.0646ZM108.999 42.5338L111.4 45.6389L109.993 43.0391L108.999 42.5338ZM108.999 42.5338L109.661 45.5474L111.4 45.6389L108.999 42.5338ZM109.661 45.5474L109.609 48.9181L112.063 48.6506L109.661 45.5474ZM109.609 48.9181L108.872 52.5904L112.01 52.0189L109.609 48.9181ZM108.872 52.5904L107.481 56.5094L111.274 55.6888L108.872 52.5904ZM107.481 56.5094L105.467 60.6199L109.884 59.6051L107.481 56.5094ZM105.467 60.6199L102.859 64.8667L107.871 63.7128L105.467 60.6199ZM102.859 64.8667L99.689 69.1947L105.265 67.9567L102.859 64.8667ZM99.689 69.1947L95.9867 73.5488L102.097 72.2818L99.689 69.1947ZM95.9867 73.5488L91.7828 77.8737L98.3972 76.6329L95.9867 73.5488ZM91.7828 77.8737L87.1078 82.1144L94.1961 80.9549L91.7828 77.8737ZM87.1078 82.1144L81.9922 86.2157L89.5243 85.1927L87.1078 82.1144ZM81.9922 86.2157L76.6398 90.0026L84.4122 89.2912L81.9922 86.2157ZM76.6398 90.0026L71.2748 93.3276L79.0634 93.0755L76.6398 90.0026ZM71.2748 93.3276L65.9586 96.1766L73.7021 96.3983L71.2748 93.3276ZM65.9586 96.1766L60.7528 98.5353L68.3895 99.2453L65.9586 96.1766ZM60.7528 98.5353L55.7186 100.39L63.1872 101.602L60.7528 98.5353ZM55.7186 100.39L50.9175 101.726L58.1565 103.456L55.7186 100.39ZM50.9175 101.726L46.411 102.529L53.3587 104.791L50.9175 101.726ZM46.411 102.529L42.2604 102.786L48.8552 105.594L46.411 102.529ZM42.2604 102.786L38.5272 102.482L44.7074 105.85L42.2604 102.786ZM38.5272 102.482L35.2728 101.603L40.9768 105.547L38.5272 102.482ZM35.2728 101.603L32.5585 100.136L37.7245 104.668L35.2728 101.603ZM32.5585 100.136L30.4459 98.0646L35.0121 103.202L32.5585 100.136ZM107.59 39.9321L108.999 42.5338L109.993 43.0391L107.59 39.9321ZM107.257 42.4401L109.661 45.5474L108.999 42.5338L107.257 42.4401ZM107.205 45.813L109.609 48.9181L109.661 45.5474L107.205 45.813ZM106.467 49.4879L108.872 52.5904L109.609 48.9181L106.467 49.4879ZM105.075 53.4095L107.481 56.5094L108.872 52.5904L105.075 53.4095ZM103.06 57.5228L105.467 60.6199L107.481 56.5094L103.06 57.5228ZM100.45 61.7725L102.859 64.8667L105.467 60.6199L100.45 61.7725ZM97.2778 66.1035L99.689 69.1947L102.859 64.8667L97.2778 66.1035ZM93.5729 70.4605L95.9867 73.5488L99.689 69.1947L93.5729 70.4605ZM89.3662 74.7884L91.7828 77.8737L95.9867 73.5488L89.3662 74.7884ZM84.688 79.0319L87.1078 82.1144L91.7828 77.8737L84.688 79.0319ZM79.569 83.136L81.9922 86.2157L87.1078 82.1144L79.569 83.136ZM74.2129 86.9255L76.6398 90.0026L81.9922 86.2157L74.2129 86.9255ZM68.8442 90.2528L71.2748 93.3276L76.6398 90.0026L68.8442 90.2528ZM63.5244 93.1037L65.9586 96.1766L71.2748 93.3276L63.5244 93.1037ZM58.315 95.464L60.7528 98.5353L65.9586 96.1766L58.315 95.464ZM53.2774 97.3197L55.7186 100.39L60.7528 98.5353L53.2774 97.3197ZM48.4731 98.6567L50.9175 101.726L55.7186 100.39L48.4731 98.6567ZM43.9635 99.4607L46.411 102.529L50.9175 101.726L43.9635 99.4607ZM39.8101 99.7177L42.2604 102.786L46.411 102.529L39.8101 99.7177ZM36.0743 99.4136L38.5272 102.482L42.2604 102.786L36.0743 99.4136ZM32.8177 98.5341L35.2728 101.603L38.5272 102.482L32.8177 98.5341ZM30.1016 97.0653L32.5585 100.136L35.2728 101.603L30.1016 97.0653ZM27.9875 94.993L30.4459 98.0646L32.5585 100.136L27.9875 94.993ZM106.594 39.4243L108.999 42.5338L107.59 39.9321L106.594 39.4243ZM106.594 39.4243L107.257 42.4401L108.999 42.5338L106.594 39.4243ZM107.257 42.4401L107.205 45.813L109.661 45.5474L107.257 42.4401ZM107.205 45.813L106.467 49.4879L109.609 48.9181L107.205 45.813ZM106.467 49.4879L105.075 53.4095L108.872 52.5904L106.467 49.4879ZM105.075 53.4095L103.06 57.5228L107.481 56.5094L105.075 53.4095ZM103.06 57.5228L100.45 61.7725L105.467 60.6199L103.06 57.5228ZM100.45 61.7725L97.2778 66.1035L102.859 64.8667L100.45 61.7725ZM97.2778 66.1035L93.5729 70.4605L99.689 69.1947L97.2778 66.1035ZM93.5729 70.4605L89.3662 74.7884L95.9867 73.5488L93.5729 70.4605ZM89.3662 74.7884L84.688 79.0319L91.7828 77.8737L89.3662 74.7884ZM84.688 79.0319L79.569 83.136L87.1078 82.1144L84.688 79.0319ZM79.569 83.136L74.2129 86.9255L81.9922 86.2157L79.569 83.136ZM74.2129 86.9255L68.8442 90.2528L76.6398 90.0026L74.2129 86.9255ZM68.8442 90.2528L63.5244 93.1037L71.2748 93.3276L68.8442 90.2528ZM63.5244 93.1037L58.315 95.464L65.9586 96.1766L63.5244 93.1037ZM58.315 95.464L53.2774 97.3197L60.7528 98.5353L58.315 95.464ZM53.2774 97.3197L48.4731 98.6567L55.7186 100.39L53.2774 97.3197ZM48.4731 98.6567L43.9635 99.4607L50.9175 101.726L48.4731 98.6567ZM43.9635 99.4607L39.8101 99.7177L46.411 102.529L43.9635 99.4607ZM39.8101 99.7177L36.0743 99.4136L42.2604 102.786L39.8101 99.7177ZM36.0743 99.4136L32.8177 98.5341L38.5272 102.482L36.0743 99.4136ZM32.8177 98.5341L30.1016 97.0653L35.2728 101.603L32.8177 98.5341ZM30.1016 97.0653L27.9875 94.993L32.5585 100.136L30.1016 97.0653ZM105.184 36.8209L106.594 39.4243L107.59 39.9321L105.184 36.8209ZM104.849 39.3285L107.257 42.4401L106.594 39.4243L104.849 39.3285ZM104.797 42.7037L107.205 45.813L107.257 42.4401L104.797 42.7037ZM104.059 46.3811L106.467 49.4879L107.205 45.813L104.059 46.3811ZM102.666 50.3054L105.075 53.4095L106.467 49.4879L102.666 50.3054ZM100.649 54.4215L103.06 57.5228L105.075 53.4095L100.649 54.4215ZM98.0378 58.6741L100.45 61.7725L103.06 57.5228L98.0378 58.6741ZM94.8632 63.008L97.2778 66.1035L100.45 61.7725L94.8632 63.008ZM91.1559 67.368L93.5729 70.4605L97.2778 66.1035L91.1559 67.368ZM86.9463 71.6988L89.3662 74.7884L93.5729 70.4605L86.9463 71.6988ZM82.2649 75.9453L84.688 79.0319L89.3662 74.7884L82.2649 75.9453ZM77.1424 80.0521L79.569 83.136L84.688 79.0319L77.1424 80.0521ZM71.7826 83.8442L74.2129 86.9255L79.569 83.136L71.7826 83.8442ZM66.4103 87.1738L68.8442 90.2528L74.2129 86.9255L66.4103 87.1738ZM61.0869 90.0266L63.5244 93.1037L68.8442 90.2528L61.0869 90.0266ZM55.8739 92.3885L58.315 95.464L63.5244 93.1037L55.8739 92.3885ZM50.8329 94.2455L53.2774 97.3197L58.315 95.464L50.8329 94.2455ZM46.0253 95.5834L48.4731 98.6567L53.2774 97.3197L46.0253 95.5834ZM41.5126 96.3879L43.9635 99.4607L48.4731 98.6567L41.5126 96.3879ZM37.3564 96.6451L39.8101 99.7177L43.9635 99.4607L37.3564 96.6451ZM33.6181 96.3408L36.0743 99.4136L39.8101 99.7177L33.6181 96.3408ZM30.3592 95.4608L32.8177 98.5341L36.0743 99.4136L30.3592 95.4608ZM27.6413 93.9909L30.1016 97.0653L32.8177 98.5341L27.6413 93.9909ZM25.5257 91.9172L27.9875 94.993L30.1016 97.0653L25.5257 91.9172ZM104.186 36.3107L106.594 39.4243L105.184 36.8209L104.186 36.3107ZM104.186 36.3107L104.849 39.3285L106.594 39.4243L104.186 36.3107ZM104.849 39.3285L104.797 42.7037L107.257 42.4401L104.849 39.3285ZM104.797 42.7037L104.059 46.3811L107.205 45.813L104.797 42.7037ZM104.059 46.3811L102.666 50.3054L106.467 49.4879L104.059 46.3811ZM102.666 50.3054L100.649 54.4215L105.075 53.4095L102.666 50.3054ZM100.649 54.4215L98.0378 58.6741L103.06 57.5228L100.649 54.4215ZM98.0378 58.6741L94.8632 63.008L100.45 61.7725L98.0378 58.6741ZM94.8632 63.008L91.1559 67.368L97.2778 66.1035L94.8632 63.008ZM91.1559 67.368L86.9463 71.6988L93.5729 70.4605L91.1559 67.368ZM86.9463 71.6988L82.2649 75.9453L89.3662 74.7884L86.9463 71.6988ZM82.2649 75.9453L77.1424 80.0521L84.688 79.0319L82.2649 75.9453ZM77.1424 80.0521L71.7826 83.8442L79.569 83.136L77.1424 80.0521ZM71.7826 83.8442L66.4103 87.1738L74.2129 86.9255L71.7826 83.8442ZM66.4103 87.1738L61.0869 90.0266L68.8442 90.2528L66.4103 87.1738ZM61.0869 90.0266L55.8739 92.3885L63.5244 93.1037L61.0869 90.0266ZM55.8739 92.3885L50.8329 94.2455L58.315 95.464L55.8739 92.3885ZM50.8329 94.2455L46.0253 95.5834L53.2774 97.3197L50.8329 94.2455ZM46.0253 95.5834L41.5126 96.3879L48.4731 98.6567L46.0253 95.5834ZM41.5126 96.3879L37.3564 96.6451L43.9635 99.4607L41.5126 96.3879ZM37.3564 96.6451L33.6181 96.3408L39.8101 99.7177L37.3564 96.6451ZM33.6181 96.3408L30.3592 95.4608L36.0743 99.4136L33.6181 96.3408ZM30.3592 95.4608L27.6413 93.9909L32.8177 98.5341L30.3592 95.4608ZM27.6413 93.9909L25.5257 91.9172L30.1016 97.0653L27.6413 93.9909ZM102.775 33.7055L104.186 36.3107L105.184 36.8209L102.775 33.7055ZM102.438 36.2126L104.849 39.3285L104.186 36.3107L102.438 36.2126ZM102.386 39.5901L104.797 42.7037L104.849 39.3285L102.386 39.5901ZM101.648 43.27L104.059 46.3811L104.797 42.7037L101.648 43.27ZM100.254 47.197L102.666 50.3054L104.059 46.3811L100.254 47.197ZM98.2351 51.3159L100.649 54.4215L102.666 50.3054L98.2351 51.3159ZM95.6221 55.5714L98.0378 58.6741L100.649 54.4215L95.6221 55.5714ZM92.4454 59.9083L94.8632 63.008L98.0378 58.6741L92.4454 59.9083ZM88.7355 64.2712L91.1559 67.368L94.8632 63.008L88.7355 64.2712ZM84.523 68.605L86.9463 71.6988L91.1559 67.368L84.523 68.605ZM79.8385 72.8544L82.2649 75.9453L86.9463 71.6988L79.8385 72.8544ZM74.7125 76.9641L77.1424 80.0521L82.2649 75.9453L74.7125 76.9641ZM69.3491 80.7587L71.7826 83.8442L77.1424 80.0521L69.3491 80.7587ZM63.9731 84.0905L66.4103 87.1738L71.7826 83.8442L63.9731 84.0905ZM58.6461 86.9453L61.0869 90.0266L66.4103 87.1738L58.6461 86.9453ZM53.4295 89.3089L55.8739 92.3885L61.0869 90.0266L53.4295 89.3089ZM48.3851 91.1671L50.8329 94.2455L55.8739 92.3885L48.3851 91.1671ZM43.5742 92.5059L46.0253 95.5834L50.8329 94.2455L43.5742 92.5059ZM39.0584 93.311L41.5126 96.3879L46.0253 95.5834L39.0584 93.311ZM34.8994 93.5684L37.3564 96.6451L41.5126 96.3879L34.8994 93.5684ZM31.1585 93.2638L33.6181 96.3408L37.3564 96.6451L31.1585 93.2638ZM27.8974 92.3832L30.3592 95.4608L33.6181 96.3408L27.8974 92.3832ZM25.1776 90.9124L27.6413 93.9909L30.3592 95.4608L25.1776 90.9124ZM23.0606 88.8372L25.5257 91.9172L27.6413 93.9909L23.0606 88.8372ZM101.774 33.1928L104.186 36.3107L102.775 33.7055L101.774 33.1928ZM101.774 33.1928L102.438 36.2126L104.186 36.3107L101.774 33.1928ZM102.438 36.2126L102.386 39.5901L104.849 39.3285L102.438 36.2126ZM102.386 39.5901L101.648 43.27L104.797 42.7037L102.386 39.5901ZM101.648 43.27L100.254 47.197L104.059 46.3811L101.648 43.27ZM100.254 47.197L98.2351 51.3159L102.666 50.3054L100.254 47.197ZM98.2351 51.3159L95.6221 55.5714L100.649 54.4215L98.2351 51.3159ZM95.6221 55.5714L92.4454 59.9083L98.0378 58.6741L95.6221 55.5714ZM92.4454 59.9083L88.7355 64.2712L94.8632 63.008L92.4454 59.9083ZM88.7355 64.2712L84.523 68.605L91.1559 67.368L88.7355 64.2712ZM84.523 68.605L79.8385 72.8544L86.9463 71.6988L84.523 68.605ZM79.8385 72.8544L74.7125 76.9641L82.2649 75.9453L79.8385 72.8544ZM74.7125 76.9641L69.3491 80.7587L77.1424 80.0521L74.7125 76.9641ZM69.3491 80.7587L63.9731 84.0905L71.7826 83.8442L69.3491 80.7587ZM63.9731 84.0905L58.6461 86.9453L66.4103 87.1738L63.9731 84.0905ZM58.6461 86.9453L53.4295 89.3089L61.0869 90.0266L58.6461 86.9453ZM53.4295 89.3089L48.3851 91.1671L55.8739 92.3885L53.4295 89.3089ZM48.3851 91.1671L43.5742 92.5059L50.8329 94.2455L48.3851 91.1671ZM43.5742 92.5059L39.0584 93.311L46.0253 95.5834L43.5742 92.5059ZM39.0584 93.311L34.8994 93.5684L41.5126 96.3879L39.0584 93.311ZM34.8994 93.5684L31.1585 93.2638L37.3564 96.6451L34.8994 93.5684ZM31.1585 93.2638L27.8974 92.3832L33.6181 96.3408L31.1585 93.2638ZM27.8974 92.3832L25.1776 90.9124L30.3592 95.4608L27.8974 92.3832ZM25.1776 90.9124L23.0606 88.8372L27.6413 93.9909L25.1776 90.9124ZM100.363 30.5858L101.774 33.1928L102.775 33.7055L100.363 30.5858ZM100.024 33.0925L102.438 36.2126L101.774 33.1928L100.024 33.0925ZM99.9716 36.4723L102.386 39.5901L102.438 36.2126L99.9716 36.4723ZM99.2327 40.1547L101.648 43.27L102.386 39.5901L99.2327 40.1547ZM97.8379 44.0844L100.254 47.197L101.648 43.27L97.8379 44.0844ZM95.8179 48.2061L98.2351 51.3159L100.254 47.197L95.8179 48.2061ZM93.2032 52.4645L95.6221 55.5714L98.2351 51.3159L93.2032 52.4645ZM90.0243 56.8044L92.4454 59.9083L95.6221 55.5714L90.0243 56.8044ZM86.3119 61.1703L88.7355 64.2712L92.4454 59.9083L86.3119 61.1703ZM82.0965 65.507L84.523 68.605L88.7355 64.2712L82.0965 65.507ZM77.4088 69.7593L79.8385 72.8544L84.523 68.605L77.4088 69.7593ZM72.2792 73.8718L74.7125 76.9641L79.8385 72.8544L72.2792 73.8718ZM66.9122 77.669L69.3491 80.7587L74.7125 76.9641L66.9122 77.669ZM61.5325 81.0031L63.9731 84.0905L69.3491 80.7587L61.5325 81.0031ZM56.2019 83.8598L58.6461 86.9453L63.9731 84.0905L56.2019 83.8598ZM50.9818 86.225L53.4295 89.3089L58.6461 86.9453L50.9818 86.225ZM45.9339 88.0845L48.3851 91.1671L53.4295 89.3089L45.9339 88.0845ZM41.1197 89.4242L43.5742 92.5059L48.3851 91.1671L41.1197 89.4242ZM36.6009 90.2299L39.0584 93.311L43.5742 92.5059L36.6009 90.2299ZM32.439 90.4874L34.8994 93.5684L39.0584 93.311L32.439 90.4874ZM28.6956 90.1826L31.1585 93.2638L34.8994 93.5684L28.6956 90.1826ZM25.4322 89.3014L27.8974 92.3832L31.1585 93.2638L25.4322 89.3014ZM22.7106 87.8296L25.1776 90.9124L27.8974 92.3832L22.7106 87.8296ZM20.5922 85.753L23.0606 88.8372L25.1776 90.9124L20.5922 85.753ZM99.3593 30.0706L101.774 33.1928L100.363 30.5858L99.3593 30.0706ZM99.3593 30.0706L100.024 33.0925L101.774 33.1928L99.3593 30.0706ZM100.024 33.0925L99.9716 36.4723L102.438 36.2126L100.024 33.0925ZM99.9716 36.4723L99.2327 40.1547L102.386 39.5901L99.9716 36.4723ZM99.2327 40.1547L97.8379 44.0844L101.648 43.27L99.2327 40.1547ZM97.8379 44.0844L95.8179 48.2061L100.254 47.197L97.8379 44.0844ZM95.8179 48.2061L93.2032 52.4645L98.2351 51.3159L95.8179 48.2061ZM93.2032 52.4645L90.0243 56.8044L95.6221 55.5714L93.2032 52.4645ZM90.0243 56.8044L86.3119 61.1703L92.4454 59.9083L90.0243 56.8044ZM86.3119 61.1703L82.0965 65.507L88.7355 64.2712L86.3119 61.1703ZM82.0965 65.507L77.4088 69.7593L84.523 68.605L82.0965 65.507ZM77.4088 69.7593L72.2792 73.8718L79.8385 72.8544L77.4088 69.7593ZM72.2792 73.8718L66.9122 77.669L74.7125 76.9641L72.2792 73.8718ZM66.9122 77.669L61.5325 81.0031L69.3491 80.7587L66.9122 77.669ZM61.5325 81.0031L56.2019 83.8598L63.9731 84.0905L61.5325 81.0031ZM56.2019 83.8598L50.9818 86.225L58.6461 86.9453L56.2019 83.8598ZM50.9818 86.225L45.9339 88.0845L53.4295 89.3089L50.9818 86.225ZM45.9339 88.0845L41.1197 89.4242L48.3851 91.1671L45.9339 88.0845ZM41.1197 89.4242L36.6009 90.2299L43.5742 92.5059L41.1197 89.4242ZM36.6009 90.2299L32.439 90.4874L39.0584 93.311L36.6009 90.2299ZM32.439 90.4874L28.6956 90.1826L34.8994 93.5684L32.439 90.4874ZM28.6956 90.1826L25.4322 89.3014L31.1585 93.2638L28.6956 90.1826ZM25.4322 89.3014L22.7106 87.8296L27.8974 92.3832L25.4322 89.3014ZM22.7106 87.8296L20.5922 85.753L25.1776 90.9124L22.7106 87.8296ZM97.9471 27.4619L99.3593 30.0706L100.363 30.5858L97.9471 27.4619ZM97.6064 29.9682L100.024 33.0925L99.3593 30.0706L97.6064 29.9682ZM97.5539 33.3503L99.9716 36.4723L100.024 33.0925L97.5539 33.3503ZM96.8145 37.0352L99.2327 40.1547L99.9716 36.4723L96.8145 37.0352ZM95.4189 40.9676L97.8379 44.0844L99.2327 40.1547L95.4189 40.9676ZM93.3974 45.0921L95.8179 48.2061L97.8379 44.0844L93.3974 45.0921ZM90.7809 49.3534L93.2032 52.4645L95.8179 48.2061L90.7809 49.3534ZM87.5999 53.6962L90.0243 56.8044L93.2032 52.4645L87.5999 53.6962ZM83.8849 58.0651L86.3119 61.1703L90.0243 56.8044L83.8849 58.0651ZM79.6667 62.4048L82.0965 65.507L86.3119 61.1703L79.6667 62.4048ZM74.9757 66.66L77.4088 69.7593L82.0965 65.507L74.9757 66.66ZM69.8427 70.7752L72.2792 73.8718L77.4088 69.7593L69.8427 70.7752ZM64.472 74.5751L66.9122 77.669L72.2792 73.8718L64.472 74.5751ZM59.0887 77.9115L61.5325 81.0031L66.9122 77.669L59.0887 77.9115ZM53.7544 80.7701L56.2019 83.8598L61.5325 81.0031L53.7544 80.7701ZM48.5307 83.1369L50.9818 86.225L56.2019 83.8598L48.5307 83.1369ZM43.4794 84.9977L45.9339 88.0845L50.9818 86.225L43.4794 84.9977ZM38.6619 86.3383L41.1197 89.4242L45.9339 88.0845L38.6619 86.3383ZM34.14 87.1445L36.6009 90.2299L41.1197 89.4242L34.14 87.1445ZM29.9752 87.4022L32.439 90.4874L36.6009 90.2299L29.9752 87.4022ZM26.2293 87.0973L28.6956 90.1826L32.439 90.4874L26.2293 87.0973ZM22.9637 86.2154L25.4322 89.3014L28.6956 90.1826L22.9637 86.2154ZM20.2402 84.7426L22.7106 87.8296L25.4322 89.3014L20.2402 84.7426ZM18.1204 82.6646L20.5922 85.753L22.7106 87.8296L18.1204 82.6646ZM96.9413 26.9442L99.3593 30.0706L97.9471 27.4619L96.9413 26.9442ZM96.9413 26.9442L97.6064 29.9682L99.3593 30.0706L96.9413 26.9442ZM97.6064 29.9682L97.5539 33.3503L100.024 33.0925L97.6064 29.9682ZM97.5539 33.3503L96.8145 37.0352L99.9716 36.4723L97.5539 33.3503ZM96.8145 37.0352L95.4189 40.9676L99.2327 40.1547L96.8145 37.0352ZM95.4189 40.9676L93.3974 45.0921L97.8379 44.0844L95.4189 40.9676ZM93.3974 45.0921L90.7809 49.3534L95.8179 48.2061L93.3974 45.0921ZM90.7809 49.3534L87.5999 53.6962L93.2032 52.4645L90.7809 49.3534ZM87.5999 53.6962L83.8849 58.0651L90.0243 56.8044L87.5999 53.6962ZM83.8849 58.0651L79.6667 62.4048L86.3119 61.1703L83.8849 58.0651ZM79.6667 62.4048L74.9757 66.66L82.0965 65.507L79.6667 62.4048ZM74.9757 66.66L69.8427 70.7752L77.4088 69.7593L74.9757 66.66ZM69.8427 70.7752L64.472 74.5751L72.2792 73.8718L69.8427 70.7752ZM64.472 74.5751L59.0887 77.9115L66.9122 77.669L64.472 74.5751ZM59.0887 77.9115L53.7544 80.7701L61.5325 81.0031L59.0887 77.9115ZM53.7544 80.7701L48.5307 83.1369L56.2019 83.8598L53.7544 80.7701ZM48.5307 83.1369L43.4794 84.9977L50.9818 86.225L48.5307 83.1369ZM43.4794 84.9977L38.6619 86.3383L45.9339 88.0845L43.4794 84.9977ZM38.6619 86.3383L34.14 87.1445L41.1197 89.4242L38.6619 86.3383ZM34.14 87.1445L29.9752 87.4022L36.6009 90.2299L34.14 87.1445ZM29.9752 87.4022L26.2293 87.0973L32.439 90.4874L29.9752 87.4022ZM26.2293 87.0973L22.9637 86.2154L28.6956 90.1826L26.2293 87.0973ZM22.9637 86.2154L20.2402 84.7426L25.4322 89.3014L22.9637 86.2154ZM20.2402 84.7426L18.1204 82.6646L22.7106 87.8296L20.2402 84.7426ZM95.5281 24.3337L96.9413 26.9442L97.9471 27.4619L95.5281 24.3337ZM95.1855 26.8395L97.6064 29.9682L96.9413 26.9442L95.1855 26.8395ZM95.133 30.224L97.5539 33.3503L97.6064 29.9682L95.133 30.224ZM94.3931 33.9114L96.8145 37.0352L97.5539 33.3503L94.3931 33.9114ZM92.9964 37.8465L95.4189 40.9676L96.8145 37.0352L92.9964 37.8465ZM90.9737 41.9738L93.3974 45.0921L95.4189 40.9676L90.9737 41.9738ZM88.3553 46.238L90.7809 49.3534L93.3974 45.0921L88.3553 46.238ZM85.1721 50.5838L87.5999 53.6962L90.7809 49.3534L85.1721 50.5838ZM81.4547 54.9557L83.8849 58.0651L87.5999 53.6962L81.4547 54.9557ZM77.2335 59.2983L79.6667 62.4048L83.8849 58.0651L77.2335 59.2983ZM72.5394 63.5564L74.9757 66.66L79.6667 62.4048L72.5394 63.5564ZM67.4028 67.6745L69.8427 70.7752L74.9757 66.66L67.4028 67.6745ZM62.0284 71.477L64.472 74.5751L69.8427 70.7752L62.0284 71.477ZM56.6414 74.8156L59.0887 77.9115L64.472 74.5751L56.6414 74.8156ZM51.3035 77.6762L53.7544 80.7701L59.0887 77.9115L51.3035 77.6762ZM46.0763 80.0446L48.5307 83.1369L53.7544 80.7701L46.0763 80.0446ZM41.0215 81.9067L43.4794 84.9977L48.5307 83.1369L41.0215 81.9067ZM36.2007 83.2482L38.6619 86.3383L43.4794 84.9977L36.2007 83.2482ZM31.6757 84.0549L34.14 87.1445L38.6619 86.3383L31.6757 84.0549ZM27.5081 84.3128L29.9752 87.4022L34.14 87.1445L27.5081 84.3128ZM23.7596 84.0077L26.2293 87.0973L29.9752 87.4022L23.7596 84.0077ZM20.4918 83.1252L22.9637 86.2154L26.2293 87.0973L20.4918 83.1252ZM17.7664 81.6514L20.2402 84.7426L22.9637 86.2154L17.7664 81.6514ZM15.6451 79.572L18.1204 82.6646L20.2402 84.7426L15.6451 79.572ZM94.5199 23.8135L96.9413 26.9442L95.5281 24.3337L94.5199 23.8135ZM94.5199 23.8135L95.1855 26.8395L96.9413 26.9442L94.5199 23.8135ZM95.1855 26.8395L95.133 30.224L97.6064 29.9682L95.1855 26.8395ZM95.133 30.224L94.3931 33.9114L97.5539 33.3503L95.133 30.224ZM94.3931 33.9114L92.9964 37.8465L96.8145 37.0352L94.3931 33.9114ZM92.9964 37.8465L90.9737 41.9738L95.4189 40.9676L92.9964 37.8465ZM90.9737 41.9738L88.3553 46.238L93.3974 45.0921L90.9737 41.9738ZM88.3553 46.238L85.1721 50.5838L90.7809 49.3534L88.3553 46.238ZM85.1721 50.5838L81.4547 54.9557L87.5999 53.6962L85.1721 50.5838ZM81.4547 54.9557L77.2335 59.2983L83.8849 58.0651L81.4547 54.9557ZM77.2335 59.2983L72.5394 63.5564L79.6667 62.4048L77.2335 59.2983ZM72.5394 63.5564L67.4028 67.6745L74.9757 66.66L72.5394 63.5564ZM67.4028 67.6745L62.0284 71.477L69.8427 70.7752L67.4028 67.6745ZM62.0284 71.477L56.6414 74.8156L64.472 74.5751L62.0284 71.477ZM56.6414 74.8156L51.3035 77.6762L59.0887 77.9115L56.6414 74.8156ZM51.3035 77.6762L46.0763 80.0446L53.7544 80.7701L51.3035 77.6762ZM46.0763 80.0446L41.0215 81.9067L48.5307 83.1369L46.0763 80.0446ZM41.0215 81.9067L36.2007 83.2482L43.4794 84.9977L41.0215 81.9067ZM36.2007 83.2482L31.6757 84.0549L38.6619 86.3383L36.2007 83.2482ZM31.6757 84.0549L27.5081 84.3128L34.14 87.1445L31.6757 84.0549ZM27.5081 84.3128L23.7596 84.0077L29.9752 87.4022L27.5081 84.3128ZM23.7596 84.0077L20.4918 83.1252L26.2293 87.0973L23.7596 84.0077ZM20.4918 83.1252L17.7664 81.6514L22.9637 86.2154L20.4918 83.1252ZM17.7664 81.6514L15.6451 79.572L20.2402 84.7426L17.7664 81.6514ZM93.1058 21.2012L94.5199 23.8135L95.5281 24.3337L93.1058 21.2012ZM92.7613 23.7066L95.1855 26.8395L94.5199 23.8135L92.7613 23.7066ZM92.7087 27.0934L95.133 30.224L95.1855 26.8395L92.7087 27.0934ZM91.9684 30.7833L94.3931 33.9114L95.133 30.224L91.9684 30.7833ZM90.5707 34.7211L92.9964 37.8465L94.3931 33.9114L90.5707 34.7211ZM88.5466 38.8512L90.9737 41.9738L92.9964 37.8465L88.5466 38.8512ZM85.9265 43.1184L88.3553 46.238L90.9737 41.9738L85.9265 43.1184ZM82.7411 47.4671L85.1721 50.5838L88.3553 46.238L82.7411 47.4671ZM79.0211 51.842L81.4547 54.9557L85.1721 50.5838L79.0211 51.842ZM74.797 56.1876L77.2335 59.2983L81.4547 54.9557L74.797 56.1876ZM70.0997 60.4486L72.5394 63.5564L77.2335 59.2983L70.0997 60.4486ZM64.9596 64.5695L67.4028 67.6745L72.5394 63.5564L64.9596 64.5695ZM59.5816 68.3746L62.0284 71.477L67.4028 67.6745L59.5816 68.3746ZM54.1909 71.7155L56.6414 74.8156L62.0284 71.477L54.1909 71.7155ZM48.8493 74.578L51.3035 77.6762L56.6414 74.8156L48.8493 74.578ZM43.6185 76.9481L46.0763 80.0446L51.3035 77.6762L43.6185 76.9481ZM38.5602 78.8114L41.0215 81.9067L46.0763 80.0446L38.5602 78.8114ZM33.7362 80.1538L36.2007 83.2482L41.0215 81.9067L33.7362 80.1538ZM29.2081 80.9612L31.6757 84.0549L36.2007 83.2482L29.2081 80.9612ZM25.0377 81.2192L27.5081 84.3128L31.6757 84.0549L25.0377 81.2192ZM21.2866 80.9138L23.7596 84.0077L27.5081 84.3128L21.2866 80.9138ZM18.0165 80.0308L20.4918 83.1252L23.7596 84.0077L18.0165 80.0308ZM15.2893 78.556L17.7664 81.6514L20.4918 83.1252L15.2893 78.556ZM13.1665 76.4751L15.6451 79.572L17.7664 81.6514L13.1665 76.4751ZM92.0953 20.6785L94.5199 23.8135L93.1058 21.2012L92.0953 20.6785ZM92.0953 20.6785L92.7613 23.7066L94.5199 23.8135L92.0953 20.6785ZM92.7613 23.7066L92.7087 27.0934L95.1855 26.8395L92.7613 23.7066ZM92.7087 27.0934L91.9684 30.7833L95.133 30.224L92.7087 27.0934ZM91.9684 30.7833L90.5707 34.7211L94.3931 33.9114L91.9684 30.7833ZM90.5707 34.7211L88.5466 38.8512L92.9964 37.8465L90.5707 34.7211ZM88.5466 38.8512L85.9265 43.1184L90.9737 41.9738L88.5466 38.8512ZM85.9265 43.1184L82.7411 47.4671L88.3553 46.238L85.9265 43.1184ZM82.7411 47.4671L79.0211 51.842L85.1721 50.5838L82.7411 47.4671ZM79.0211 51.842L74.797 56.1876L81.4547 54.9557L79.0211 51.842ZM74.797 56.1876L70.0997 60.4486L77.2335 59.2983L74.797 56.1876ZM70.0997 60.4486L64.9596 64.5695L72.5394 63.5564L70.0997 60.4486ZM64.9596 64.5695L59.5816 68.3746L67.4028 67.6745L64.9596 64.5695ZM59.5816 68.3746L54.1909 71.7155L62.0284 71.477L59.5816 68.3746ZM54.1909 71.7155L48.8493 74.578L56.6414 74.8156L54.1909 71.7155ZM48.8493 74.578L43.6185 76.9481L51.3035 77.6762L48.8493 74.578ZM43.6185 76.9481L38.5602 78.8114L46.0763 80.0446L43.6185 76.9481ZM38.5602 78.8114L33.7362 80.1538L41.0215 81.9067L38.5602 78.8114ZM33.7362 80.1538L29.2081 80.9612L36.2007 83.2482L33.7362 80.1538ZM29.2081 80.9612L25.0377 81.2192L31.6757 84.0549L29.2081 80.9612ZM25.0377 81.2192L21.2866 80.9138L27.5081 84.3128L25.0377 81.2192ZM21.2866 80.9138L18.0165 80.0308L23.7596 84.0077L21.2866 80.9138ZM18.0165 80.0308L15.2893 78.556L20.4918 83.1252L18.0165 80.0308ZM15.2893 78.556L13.1665 76.4751L17.7664 81.6514L15.2893 78.556ZM90.6801 18.0644L92.0953 20.6785L93.1058 21.2012L90.6801 18.0644Z" fill="#6FFFE9" fill-opacity="0.66" stroke="#0B132B" stroke-opacity="0.66" stroke-width="0.577223"/>
<path d="M92.0953 20.6784L90.6801 18.0644L88.5574 15.9835L92.0953 20.6784ZM92.7087 27.0933L92.7612 23.7066L92.0953 20.6784L92.7087 27.0933ZM90.5707 34.721L91.9683 30.7833L92.7087 27.0933L90.5707 34.721ZM85.9265 43.1183L88.5466 38.8512L90.5707 34.721L85.9265 43.1183ZM79.0211 51.8419L82.7411 47.467L85.9265 43.1183L79.0211 51.8419ZM70.0997 60.4485L74.797 56.1875L79.0211 51.8419L70.0997 60.4485ZM59.5816 68.3745L64.9596 64.5694L70.0997 60.4485L59.5816 68.3745ZM48.8493 74.578L54.1909 71.7154L59.5816 68.3745L48.8493 74.578ZM38.5602 78.8113L43.6185 76.948L48.8493 74.578L38.5602 78.8113ZM29.2081 80.9611L33.7362 80.1538L38.5602 78.8113L29.2081 80.9611ZM21.2866 80.9138L25.0377 81.2192L29.2081 80.9611L21.2866 80.9138ZM15.2893 78.5559L18.0165 80.0307L21.2866 80.9138L15.2893 78.5559ZM11.7514 73.861L13.1665 76.475L15.2893 78.5559L11.7514 73.861ZM11.1379 67.4461L11.0854 70.8328L11.7514 73.861L11.1379 67.4461ZM13.2759 59.8184L11.8783 63.7561L11.1379 67.4461L13.2759 59.8184ZM17.9202 51.4211L15.3001 55.6882L13.2759 59.8184L17.9202 51.4211ZM24.8256 42.6975L21.1056 47.0724L17.9202 51.4211L24.8256 42.6975ZM33.747 34.0909L29.0496 38.3519L24.8256 42.6975L33.747 34.0909ZM44.2651 26.1649L38.887 29.97L33.747 34.0909L44.2651 26.1649ZM54.9974 19.9614L49.6558 22.824L44.2651 26.1649L54.9974 19.9614ZM65.2864 15.7281L60.2282 17.5914L54.9974 19.9614L65.2864 15.7281ZM74.6386 13.5783L70.1105 14.3856L65.2864 15.7281L74.6386 13.5783ZM82.5601 13.6256L78.809 13.3202L74.6386 13.5783L82.5601 13.6256ZM88.5574 15.9835L85.8301 14.5087L82.5601 13.6256L88.5574 15.9835ZM92.7087 27.0933L92.0953 20.6784L88.5574 15.9835L92.7087 27.0933ZM85.9265 43.1183L90.5707 34.721L92.7087 27.0933L85.9265 43.1183ZM70.0997 60.4485L79.0211 51.8419L85.9265 43.1183L70.0997 60.4485ZM48.8493 74.578L59.5816 68.3745L70.0997 60.4485L48.8493 74.578ZM29.2081 80.9611L38.5602 78.8113L48.8493 74.578L29.2081 80.9611ZM15.2893 78.5559L21.2866 80.9138L29.2081 80.9611L15.2893 78.5559ZM11.1379 67.4461L11.7514 73.861L15.2893 78.5559L11.1379 67.4461ZM17.9202 51.4211L13.2759 59.8184L11.1379 67.4461L17.9202 51.4211ZM33.747 34.0909L24.8256 42.6975L17.9202 51.4211L33.747 34.0909ZM54.9974 19.9614L44.2651 26.1649L33.747 34.0909L54.9974 19.9614ZM74.6386 13.5783L65.2864 15.7281L54.9974 19.9614L74.6386 13.5783ZM88.5574 15.9835L82.5601 13.6256L74.6386 13.5783L88.5574 15.9835ZM85.9265 43.1183L92.7087 27.0933L88.5574 15.9835L85.9265 43.1183ZM48.8493 74.578L70.0997 60.4485L85.9265 43.1183L48.8493 74.578ZM15.2893 78.5559L29.2081 80.9611L48.8493 74.578L15.2893 78.5559ZM17.9202 51.4211L11.1379 67.4461L15.2893 78.5559L17.9202 51.4211ZM54.9974 19.9614L33.747 34.0909L17.9202 51.4211L54.9974 19.9614ZM88.5574 15.9835L74.6386 13.5783L54.9974 19.9614L71.7774 17.9725L88.5574 15.9835ZM48.8493 74.578L85.9265 43.1183L88.5574 15.9835L48.8493 74.578ZM17.9202 51.4211L15.2893 78.5559L48.8493 74.578L17.9202 51.4211ZM88.5574 15.9835L71.7774 17.9725L54.9974 19.9614L17.9202 51.4211L88.5574 15.9835ZM17.9202 51.4211L48.8493 74.578L88.5574 15.9835L17.9202 51.4211Z" fill="#6FFFE9" fill-opacity="0.66"/>
<path d="M92.0953 20.6785L90.6801 18.0644L88.5574 15.9835M92.0953 20.6785L88.5574 15.9835M92.0953 20.6785L92.7612 23.7066L92.7087 27.0933M92.0953 20.6785L92.7087 27.0933M88.5574 15.9835L85.8301 14.5087L82.5601 13.6256M88.5574 15.9835L82.5601 13.6256M88.5574 15.9835L92.7087 27.0933M88.5574 15.9835L74.6386 13.5783M88.5574 15.9835L85.9265 43.1183M88.5574 15.9835L48.8493 74.578M88.5574 15.9835L17.9202 51.4211M88.5574 15.9835L71.7774 17.9725M92.7087 27.0933L91.9683 30.7833L90.5707 34.721M92.7087 27.0933L90.5707 34.721M92.7087 27.0933L85.9265 43.1183M90.5707 34.721L88.5466 38.8512L85.9265 43.1183M90.5707 34.721L85.9265 43.1183M85.9265 43.1183L82.7411 47.467L79.0211 51.8419M85.9265 43.1183L79.0211 51.8419M85.9265 43.1183L70.0997 60.4485M85.9265 43.1183L48.8493 74.578M79.0211 51.8419L74.797 56.1875L70.0997 60.4485M79.0211 51.8419L70.0997 60.4485M70.0997 60.4485L64.9596 64.5694L59.5816 68.3745M70.0997 60.4485L59.5816 68.3745M70.0997 60.4485L48.8493 74.578M59.5816 68.3745L54.1909 71.7154L48.8493 74.578M59.5816 68.3745L48.8493 74.578M48.8493 74.578L43.6185 76.948L38.5602 78.8113M48.8493 74.578L38.5602 78.8113M48.8493 74.578L29.2081 80.9611M48.8493 74.578L15.2893 78.5559M48.8493 74.578L17.9202 51.4211M48.8493 74.578L46.9904 36.845M38.5602 78.8113L33.7362 80.1538L29.2081 80.9611M38.5602 78.8113L29.2081 80.9611M29.2081 80.9611L25.0377 81.2192L21.2866 80.9138M29.2081 80.9611L21.2866 80.9138M29.2081 80.9611L15.2893 78.5559M21.2866 80.9138L18.0165 80.0307L15.2893 78.5559M21.2866 80.9138L15.2893 78.5559M15.2893 78.5559L13.1665 76.475L11.7514 73.861M15.2893 78.5559L11.7514 73.861M15.2893 78.5559L11.1379 67.4461M15.2893 78.5559L17.9202 51.4211M11.7514 73.861L11.0854 70.8328L11.1379 67.4461M11.7514 73.861L11.1379 67.4461M11.1379 67.4461L11.8783 63.7561L13.2759 59.8184M11.1379 67.4461L13.2759 59.8184M11.1379 67.4461L17.9202 51.4211M13.2759 59.8184L15.3001 55.6882L17.9202 51.4211M13.2759 59.8184L17.9202 51.4211M17.9202 51.4211L21.1056 47.0724L24.8256 42.6975M17.9202 51.4211L24.8256 42.6975M17.9202 51.4211L33.747 34.0909M17.9202 51.4211L54.9974 19.9614M24.8256 42.6975L29.0496 38.3519L33.747 34.0909M24.8256 42.6975L33.747 34.0909M33.747 34.0909L38.887 29.97L44.2651 26.1649M33.747 34.0909L44.2651 26.1649M33.747 34.0909L54.9974 19.9614M44.2651 26.1649L49.6558 22.824L54.9974 19.9614M44.2651 26.1649L54.9974 19.9614M54.9974 19.9614L60.2282 17.5914L65.2864 15.7281M54.9974 19.9614L65.2864 15.7281M54.9974 19.9614L74.6386 13.5783M54.9974 19.9614L46.9904 36.845M54.9974 19.9614L60.7593 29.4432M54.9974 19.9614L71.7774 17.9725M65.2864 15.7281L70.1105 14.3856L74.6386 13.5783M65.2864 15.7281L74.6386 13.5783M74.6386 13.5783L78.809 13.3202L82.5601 13.6256M74.6386 13.5783L82.5601 13.6256M46.9904 36.845L31.1799 61.0906M46.9904 36.845L36.6243 35.3565M60.7593 29.4432L66.5227 48.5583M60.7593 29.4432L47.7788 45.241L57.1508 46.8997M60.7593 29.4432L71.7774 17.9725M66.5227 48.5583L70.1187 25.1668L75.7688 34.0278L74.2536 52.6457L66.5227 48.5583ZM66.5227 48.5583L57.1508 46.8997M31.1799 61.0906L27.0379 76.6727M31.1799 61.0906L29.7013 45.7002L16.5723 65.1303L31.1799 61.0906ZM56.2755 63.1589L48.1064 55.6814L39.0061 49.2751L37.5652 66.077L34.0042 75.582M57.1508 46.8997L63.1215 37.3267" stroke="#0B132B" stroke-opacity="0.66" stroke-width="0.577223"/>
</svg>
