<svg width="356" height="498" viewBox="0 0 356 498" fill="none" xmlns="http://www.w3.org/2000/svg">
<path fill-rule="evenodd" clip-rule="evenodd" d="M278.666 53.9709C334.334 55.9982 389.394 -14.0961 436.934 14.9132C483.35 43.2375 457.364 117.618 469.702 170.544C480.554 217.096 512.612 258.814 504.781 305.968C496.319 356.923 465.99 402.411 425.799 434.898C384.175 468.543 331.897 482.997 278.666 488.739C219.803 495.088 145.829 513.548 106.488 469.341C65.716 423.526 120.755 348.288 101.789 289.983C82.8193 231.669 -2.09632 203.388 0.0395924 142.108C2.16204 81.2146 53.6503 21.4633 111.789 3.07241C168.627 -14.9071 219.087 51.8012 278.666 53.9709Z" fill="white"/>
</svg>
